<?xml version="1.0" encoding="utf-8"?>
<!-- Generator: Adobe Illustrator 27.5.0, SVG Export Plug-In . SVG Version: 6.00 Build 0)  -->
<svg version="1.1" id="图层_1" xmlns="http://www.w3.org/2000/svg" xmlns:xlink="http://www.w3.org/1999/xlink" x="0px" y="0px"
	 viewBox="0 0 56.4 56.4" style="enable-background:new 0 0 56.4 56.4;" xml:space="preserve">
<style type="text/css">
	.st0{fill:#F3C01B;}
</style>
<path class="st0" d="M34.5,10.2c-0.4,0-0.7,0.2-1.1,0.2c-0.2,0-0.7,0-1.1,0c-0.7,0-1.1,0-1.5-0.2l-0.2-0.2V9.7
	c0-0.4,0.4-1.1,0.9-1.5l1.1-0.4c0.2-0.2,0.7-0.4,1.1-0.4c1.8-0.4,3.5-0.2,4.2,0.4L38,8v0.2C37.4,9.1,36.1,9.5,34.5,10.2z M33.6,12.1
	c-0.4-0.4-0.9-0.7-1.3-0.9C31.9,11,31.4,11,31,11s-1.1,0.2-1.5,0.4c-0.4,0.2-1.1,0.7-1.5,1.3c0.7,0,1.3,0,1.8,0.2l1.3,0.7
	c0.4,0.2,0.9,0.2,1.3,0.2c0.2,0,0.7,0,0.9-0.2c0.2,0,0.2,0,0.4-0.2c0-0.2,0.2-0.2,0.4-0.2l0.7-0.4C34.3,12.6,33.9,12.4,33.6,12.1
	 M31.4,6.6c0-0.7,0.2-1.1,0.7-1.8L31,5.3c-0.4,0-0.7,0.2-1.1,0.4C29.7,6,29.5,6,29.2,6.2c-0.4,0.2-0.9,0.7-1.1,0.9
	c-0.4,0.7-0.7,1.1-0.9,1.5c0,0.4,0,0.9,0,1.5c0,0.4,0,1.1-0.2,1.8c0.4-0.4,1.1-0.9,1.5-1.3c0.4-0.4,0.9-0.9,1.3-1.3
	c0.4-0.4,0.7-0.9,0.9-1.3C31.2,7.5,31.4,7.1,31.4,6.6 M24.4,16.5c0.7-0.2,1.3-0.2,1.8-0.2c0.4,0,0.9,0.2,1.3,0.2
	c0.9,0,1.5-0.2,3.1-1.5c0,0,0,0,0.2-0.2l0.2-0.2c-0.2,0-0.4,0-0.7-0.2c-0.2,0-0.4-0.2-0.7-0.2c-0.4-0.2-0.9-0.4-1.3-0.4
	c-0.4,0-0.9,0-1.3,0.2c0,0-0.4,0.2-0.7,0.2L25.5,15c-0.2,0.2-0.4,0.4-0.7,0.7C24.6,15.9,24.4,16.3,24.4,16.5 M26.2,9.5V8.8
	c0-0.2,0-0.7,0.2-0.9c0,0,0,0-0.2,0l-0.2,0.2c-0.2,0-0.4,0.2-0.4,0.2c-1.3,1.1-1.8,1.8-2.2,2.6c-0.4,0.7-0.4,1.3-0.4,1.8
	c0,0.4,0.2,0.9,0.4,1.5c0.2,0.4,0.2,1.1,0.2,1.8c0.2-0.2,0.4-0.7,0.7-0.9c0.2-0.2,0.4-0.7,0.7-0.9c0.2-0.2,0.2-0.4,0.4-0.9
	c0-0.2,0.2-0.4,0.4-0.7c0.2-0.4,0.4-1.1,0.4-1.5S26.2,10.2,26.2,9.5 M22.2,21.4c0.7-0.4,1.1-0.7,1.5-0.7c0.4,0,0.9,0,1.3-0.2
	c0.4,0,0.9-0.2,1.3-0.7c0.2-0.2,0.4-0.4,0.7-0.7c0.2-0.2,0.4-0.7,0.9-1.1c0,0,0-0.2,0.2-0.2l0.2-0.2c-0.7,0-0.9,0-1.5,0
	c-1.1-0.2-2,0-2.6,0.7c-0.4,0-0.7,0.2-0.9,0.4c-0.2,0.2-0.2,0.4-0.4,0.7c0,0.2-0.2,0.7-0.4,0.9C22.2,20.7,22.2,20.9,22.2,21.4
	 M22,14.1c-0.4-0.4-0.4-1.1-0.4-1.8c0,0,0,0.2-0.2,0.4c0,0.2-0.2,0.4-0.2,0.4c-0.9,1.3-1.3,2.2-1.3,3.1c-0.4,0.9-0.2,1.3-0.2,2
	c0.2,0.4,0.7,0.9,0.7,1.1c0.2,0.4,0.7,0.9,0.9,1.8c0.2-0.4,0.4-0.7,0.4-1.1c0-0.4,0.2-0.7,0.2-0.9c0-0.2,0.2-0.7,0.2-0.9
	s0-0.4,0.2-0.9C22.4,16.3,22.4,15.2,22,14.1 M21.1,26.7c0.9-1.1,1.8-1.3,2.6-1.5c0.4-0.2,0.7-0.4,1.1-0.9c0.2-0.2,0.2-0.4,0.4-0.9
	c0.2-0.4,0.4-0.9,0.4-1.3c0,0,0-0.2,0-0.4l0.2-0.4c-0.4,0.2-0.9,0.2-1.3,0.4c-1.1,0-2,0.4-2.6,1.3c-0.2,0.4-0.2,0.7-0.4,0.9
	c0,0.2-0.2,0.4-0.2,0.9c0,0.2,0,0.7-0.2,0.9L21.1,26.7 M19.1,19.6c-0.4-0.4-0.7-0.7-0.7-1.5c0,0,0,0.2-0.2,0.4L18,19.2
	c-0.2,0.7-0.4,1.3-0.4,2c0,0.4,0,1.1,0,1.3c0,0.7,0.2,1.3,0.7,1.5c0.7,0.7,1.3,1.1,2.2,2.4c0-0.4,0-0.7,0-1.1c0-0.2,0-0.7,0-1.1
	v-1.5C20.2,21.6,19.8,20.5,19.1,19.6 M21.5,31.9c0.7-1.3,1.5-1.5,2.2-2.2c0.2-0.2,0.4-0.7,0.9-1.1c0-0.2,0-0.7,0.2-0.9
	c0-0.4,0-0.9,0.2-1.3V26c0-0.2,0-0.4,0-0.4c-0.4,0.4-0.9,0.4-1.3,0.7c-1.1,0.2-1.8,1.1-2.2,2c-0.2,0.2-0.2,0.4-0.2,0.9
	c0,0.2,0,0.7,0,0.9v0.9C21.3,31.1,21.3,31.5,21.5,31.9 M17.8,25.8c-0.4-0.2-0.9-0.7-1.1-1.3c0,0,0,0.2,0,0.7c0,0.2,0,0.7,0,0.7
	c0,0.7,0,1.5,0,2c0,0.4,0,1.1,0.2,1.3c0.2,0.7,0.7,1.1,0.9,1.5c0.7,0.4,1.5,0.7,2.6,1.8c0-0.4,0-0.7,0-1.1c0-0.2,0-0.7,0-1.1
	c0-0.2,0-0.7-0.2-0.9c0-0.2,0-0.4-0.2-0.9C19.3,27.1,18.9,26.2,17.8,25.8 M23.1,37c0.2-1.5,1.1-2,1.5-2.6c0.2-0.2,0.4-0.7,0.4-1.3
	v-0.9c0-0.4,0-0.9-0.2-1.3c0,0,0-0.2,0-0.4V30c-0.2,0.2-0.2,0.4-0.4,0.7c-0.2,0-0.4,0.2-0.7,0.2c-0.9,0.7-1.3,1.5-1.5,2.4v0.9
	c0,0.2,0,0.7,0,0.9l0.2,0.9C22.6,36.3,22.9,36.6,23.1,37 M18,31.7c-0.2,0-0.4-0.2-0.7-0.4l-0.7-0.7c0,0,0,0.2,0,0.7
	c0,0.2,0,0.7,0,0.7c0,0.7,0.2,1.5,0.4,2s0.4,0.9,0.7,1.3c0.4,0.7,0.9,0.9,1.3,1.1c0.9,0.4,1.8,0.2,3.1,1.1c0-0.2-0.2-0.7-0.4-1.1
	c0-0.2-0.2-0.7-0.4-0.9c0-0.2-0.2-0.4-0.4-0.9c0-0.4-0.2-0.7-0.4-0.9C19.8,32.8,19.1,32.2,18,31.7 M25.7,41.2c0-0.7,0-1.3,0.2-1.8
	l0.7-1.3c0.2-0.4,0.2-0.9,0-1.3c0-0.2,0-0.7-0.2-0.9c0-0.2-0.2-0.7-0.4-1.3v-0.2c0-0.2,0-0.4,0-0.4c0,0.2-0.2,0.4-0.4,0.7
	c0,0.2-0.2,0.4-0.4,0.7c-0.7,0.9-1.1,1.8-0.9,2.9c0,0.2,0,0.4,0.2,0.9c0,0.2,0.2,0.4,0.4,0.9c0,0.2,0.2,0.7,0.4,0.9
	C25.3,40.7,25.5,41,25.7,41.2 M19.6,37.7c-0.2,0-0.4,0-0.9-0.2c-0.2-0.2-0.4-0.2-0.7-0.4l0.2,0.7c0,0.2,0.2,0.4,0.2,0.4
	c0.2,0.7,0.7,1.3,0.9,1.8c0.2,0.4,0.7,0.9,0.9,1.1c0.4,0.4,1.1,0.7,1.5,0.9c0.4,0,0.9,0,1.3,0c0.4,0,1.1,0,1.8,0.2
	c-0.2-0.2-0.4-0.7-0.7-0.9c-0.2-0.2-0.4-0.4-0.7-0.9c-0.2-0.2-0.4-0.4-0.7-0.7L22.2,39C21.5,38.3,20.9,37.9,19.6,37.7 M29.9,44.7
	c-0.2-0.7-0.2-1.3-0.2-1.8s0.2-0.9,0.2-1.3c0-0.9-0.2-1.5-1.3-3.1c0,0,0,0-0.2-0.2c0-0.2-0.2-0.2-0.2-0.2c0,0.7-0.2,0.9-0.4,1.5
	c-0.4,0.9-0.4,2,0,2.9c0,0.2,0.2,0.4,0.4,0.7l0.7,0.7c0.2,0.2,0.4,0.4,0.7,0.7C29.2,44.3,29.5,44.5,29.9,44.7 M22.9,42.9
	c-0.4,0-1.1,0-1.8-0.2c0,0,0.2,0.2,0.2,0.4c0.2,0.4,0.4,0.7,0.4,0.7c0.4,0.7,0.9,1.1,1.3,1.5c0.4,0.2,0.9,0.7,1.1,0.9
	c0.7,0.4,1.3,0.4,1.8,0.2c0.4,0,0.9-0.2,1.3-0.4c0.4-0.2,1.1-0.2,1.8-0.4l-0.9-0.7c-0.2-0.2-0.4-0.4-0.9-0.7
	C27,44,26.8,44,26.4,43.8c-0.2,0-0.4-0.2-0.7-0.4C24.8,42.9,24,42.7,22.9,42.9 M34.5,46.7c-0.9-1.1-0.9-2-1.1-2.9
	c0-0.2,0-0.4-0.2-0.7c0,0,0-0.2-0.2-0.2c0,0,0-0.2-0.2-0.2c-0.2-0.2-0.4-0.4-0.7-0.7c-0.2-0.2-0.7-0.4-1.1-0.7c0,0-0.2,0-0.2-0.2
	L30.6,41c0,0.7,0,0.9,0,1.5c-0.2,1.1,0,2,0.9,2.9c0.2,0.2,0.4,0.4,0.7,0.4c0.2,0.2,0.4,0.2,0.7,0.4l0.9,0.2
	C33.9,46.5,34.1,46.5,34.5,46.7 M27.5,47.1c-0.4,0.2-1.1,0.4-1.8,0.2c0,0,0.2,0.2,0.4,0.4c0.2,0,0.4,0.2,0.4,0.2
	c0.7,0.4,1.3,0.9,1.8,0.9c0.4,0.2,1.1,0.2,1.3,0.4c0.2,0,0.4,0,0.4,0h0.4c0.2,0,0.4,0,0.7-0.2c0.9-0.4,1.3-1.1,2.6-1.8
	c-0.2,0-0.7-0.2-1.1-0.2l-0.9-0.2c-0.2,0-0.7,0-0.9-0.2c-0.2,0-0.7,0-0.9,0C29.5,46.7,28.4,46.7,27.5,47.1 M39.6,47.1
	c-1.3-0.9-1.3-1.8-1.8-2.4c-0.2-0.2-0.4-0.7-1.1-0.9c-0.2-0.2-0.4-0.2-0.9-0.2c-0.2,0-0.7-0.2-1.3-0.4l-0.7-0.2
	c0.2,0.4,0.2,0.9,0.4,1.5c0,0.4,0.2,1.1,0.4,1.5c0.2,0.4,0.7,0.9,1.1,1.1s1.1,0.4,1.5,0.4C38.3,47.1,38.9,47.1,39.6,47.1 M33,49.8
	c-0.4,0.4-0.9,0.7-1.5,0.9l0.7,0.2l0.7,0.2c0.9,0.2,1.3,0.2,2,0.4c0.4,0,1.1,0,1.3,0c0.7,0,1.3-0.2,1.5-0.7c0.7-0.7,0.9-1.5,2.2-2.4
	C36.7,48,34.7,48.2,33,49.8"/>
</svg>
